<svg id="svg" version="1.1" xmlns="http://www.w3.org/2000/svg" xmlns:xlink="http://www.w3.org/1999/xlink" width="400" height="400" viewBox="0, 0, 400,400"><g id="svgg"><path id="path0" d="M191.200 1.600 C 191.200 1.850,188.808 2.000,184.824 2.000 C 181.004 2.000,178.348 2.160,178.200 2.400 C 178.064 2.620,176.523 2.800,174.776 2.800 C 172.925 2.800,171.600 2.967,171.600 3.200 C 171.600 3.429,170.400 3.600,168.800 3.600 C 167.200 3.600,166.000 3.771,166.000 4.000 C 166.000 4.222,164.933 4.400,163.600 4.400 C 162.267 4.400,161.200 4.578,161.200 4.800 C 161.200 5.020,160.390 5.200,159.400 5.200 C 158.410 5.200,157.600 5.380,157.600 5.600 C 157.600 5.820,156.700 6.000,155.600 6.000 C 154.500 6.000,153.600 6.180,153.600 6.400 C 153.600 6.620,152.880 6.800,152.000 6.800 C 151.120 6.800,150.400 6.980,150.400 7.200 C 150.400 7.420,149.680 7.600,148.800 7.600 C 147.920 7.600,147.200 7.755,147.200 7.944 C 147.200 8.133,146.184 8.393,144.943 8.521 C 143.702 8.649,142.496 8.944,142.263 9.177 C 142.030 9.410,141.484 9.600,141.048 9.600 C 140.196 9.600,137.833 10.280,136.705 10.849 C 136.323 11.042,135.659 11.200,135.229 11.200 C 134.799 11.200,134.336 11.380,134.200 11.600 C 134.064 11.820,133.601 12.000,133.171 12.000 C 132.741 12.000,132.032 12.180,131.595 12.400 C 131.158 12.620,130.442 12.980,130.005 13.200 C 129.568 13.420,128.848 13.600,128.405 13.600 C 127.962 13.600,127.600 13.780,127.600 14.000 C 127.600 14.220,127.150 14.400,126.600 14.400 C 126.050 14.400,125.600 14.580,125.600 14.800 C 125.600 15.020,125.240 15.200,124.800 15.200 C 124.360 15.200,124.000 15.380,124.000 15.600 C 124.000 15.820,123.460 16.000,122.800 16.000 C 122.140 16.000,121.600 16.180,121.600 16.400 C 121.600 16.620,121.240 16.800,120.800 16.800 C 120.360 16.800,120.000 16.980,120.000 17.200 C 120.000 17.420,119.561 17.600,119.024 17.600 C 118.487 17.600,117.936 17.780,117.800 18.000 C 117.664 18.220,117.203 18.400,116.776 18.400 C 116.349 18.400,116.000 18.580,116.000 18.800 C 116.000 19.020,115.640 19.200,115.200 19.200 C 114.760 19.200,114.400 19.380,114.400 19.600 C 114.400 19.820,114.040 20.000,113.600 20.000 C 113.160 20.000,112.800 20.180,112.800 20.400 C 112.800 20.620,112.440 20.800,112.000 20.800 C 111.560 20.800,111.200 20.980,111.200 21.200 C 111.200 21.420,110.840 21.600,110.400 21.600 C 109.960 21.600,109.600 21.780,109.600 22.000 C 109.600 22.220,109.330 22.400,109.000 22.400 C 108.670 22.400,108.400 22.580,108.400 22.800 C 108.400 23.020,108.040 23.200,107.600 23.200 C 107.160 23.200,106.800 23.380,106.800 23.600 C 106.800 23.820,106.440 24.000,106.000 24.000 C 105.560 24.000,105.200 24.180,105.200 24.400 C 105.200 24.620,104.924 24.800,104.587 24.800 C 103.819 24.800,99.847 26.779,99.667 27.251 C 99.593 27.443,99.203 27.600,98.800 27.600 C 98.397 27.600,98.007 27.735,97.933 27.900 C 97.766 28.276,95.636 29.575,94.700 29.871 C 94.315 29.993,94.000 30.252,94.000 30.447 C 94.000 30.641,93.812 30.800,93.583 30.800 C 93.354 30.800,92.780 31.160,92.308 31.600 C 91.836 32.040,91.213 32.400,90.925 32.400 C 90.636 32.400,90.400 32.580,90.400 32.800 C 90.400 33.020,90.080 33.200,89.688 33.200 C 89.297 33.200,88.717 33.560,88.400 34.000 C 88.083 34.440,87.638 34.800,87.412 34.801 C 87.185 34.801,86.370 35.341,85.600 36.000 C 84.830 36.659,84.015 37.199,83.788 37.199 C 83.562 37.200,83.117 37.560,82.800 38.000 C 82.483 38.440,81.975 38.800,81.672 38.800 C 81.369 38.800,80.617 39.340,80.000 40.000 C 79.383 40.660,78.591 41.200,78.240 41.200 C 77.888 41.200,77.599 41.335,77.597 41.500 C 77.596 41.665,76.930 42.250,76.117 42.800 C 75.304 43.350,74.051 44.385,73.333 45.100 C 72.614 45.815,71.886 46.400,71.713 46.400 C 71.115 46.401,69.073 48.406,69.369 48.702 C 69.532 48.866,88.146 49.105,110.733 49.234 C 137.600 49.387,152.561 49.617,154.000 49.900 C 166.811 52.420,178.338 61.256,184.191 73.044 C 185.186 75.049,186.000 76.896,186.000 77.150 C 186.000 77.403,186.158 77.923,186.351 78.305 C 186.895 79.382,187.600 81.781,187.600 82.555 C 187.600 85.130,188.551 84.921,189.222 82.198 C 193.060 66.619,204.944 54.612,220.600 50.494 C 225.310 49.256,227.696 49.200,276.024 49.194 C 305.437 49.190,325.234 49.039,325.587 48.817 C 326.368 48.322,320.634 42.846,319.300 42.813 C 319.025 42.806,318.800 42.620,318.800 42.400 C 318.800 42.180,318.570 42.000,318.288 42.000 C 318.007 42.000,317.517 41.640,317.200 41.200 C 316.883 40.760,316.393 40.400,316.112 40.400 C 315.830 40.400,315.600 40.220,315.600 40.000 C 315.600 39.780,315.370 39.600,315.088 39.600 C 314.807 39.600,314.317 39.240,314.000 38.800 C 313.683 38.360,313.143 38.000,312.800 38.000 C 312.457 38.000,311.917 37.640,311.600 37.200 C 311.283 36.760,310.838 36.400,310.612 36.399 C 310.385 36.399,309.586 35.874,308.836 35.232 C 308.086 34.591,307.006 33.827,306.436 33.533 C 305.866 33.240,305.051 32.685,304.625 32.300 C 304.198 31.915,303.696 31.600,303.508 31.600 C 303.320 31.600,302.780 31.240,302.308 30.800 C 301.836 30.360,301.213 30.000,300.925 30.000 C 300.636 30.000,300.400 29.820,300.400 29.600 C 300.400 29.380,300.040 29.200,299.600 29.200 C 299.160 29.200,298.800 29.055,298.800 28.879 C 298.800 28.702,297.903 28.117,296.806 27.579 C 295.710 27.040,294.810 26.465,294.806 26.300 C 294.803 26.135,294.545 26.000,294.232 26.000 C 293.565 26.000,291.060 24.735,290.867 24.300 C 290.793 24.135,290.388 24.000,289.967 24.000 C 289.545 24.000,289.200 23.854,289.200 23.675 C 289.200 23.496,288.570 23.102,287.800 22.800 C 287.030 22.498,286.400 22.104,286.400 21.925 C 286.400 21.746,286.040 21.600,285.600 21.600 C 285.160 21.600,284.800 21.420,284.800 21.200 C 284.800 20.980,284.440 20.800,284.000 20.800 C 283.560 20.800,283.200 20.620,283.200 20.400 C 283.200 20.180,282.761 20.000,282.224 20.000 C 281.687 20.000,281.136 19.820,281.000 19.600 C 280.864 19.380,280.403 19.200,279.976 19.200 C 279.549 19.200,279.200 19.020,279.200 18.800 C 279.200 18.580,278.840 18.400,278.400 18.400 C 277.960 18.400,277.600 18.220,277.600 18.000 C 277.600 17.780,277.240 17.600,276.800 17.600 C 276.360 17.600,276.000 17.420,276.000 17.200 C 276.000 16.980,275.645 16.800,275.212 16.800 C 274.779 16.800,273.783 16.440,273.000 16.000 C 272.217 15.560,271.221 15.200,270.788 15.200 C 270.355 15.200,270.000 15.020,270.000 14.800 C 270.000 14.580,269.651 14.400,269.224 14.400 C 268.797 14.400,268.336 14.220,268.200 14.000 C 268.064 13.780,267.513 13.600,266.976 13.600 C 266.439 13.600,266.000 13.420,266.000 13.200 C 266.000 12.980,265.460 12.800,264.800 12.800 C 264.140 12.800,263.600 12.620,263.600 12.400 C 263.600 12.180,263.060 12.000,262.400 12.000 C 261.740 12.000,261.200 11.820,261.200 11.600 C 261.200 11.380,260.660 11.200,260.000 11.200 C 259.340 11.200,258.800 11.020,258.800 10.800 C 258.800 10.580,258.438 10.400,257.995 10.400 C 257.552 10.400,256.877 10.228,256.495 10.018 C 255.614 9.535,250.832 8.400,249.674 8.400 C 249.193 8.400,248.800 8.220,248.800 8.000 C 248.800 7.780,248.080 7.600,247.200 7.600 C 246.320 7.600,245.600 7.420,245.600 7.200 C 245.600 6.980,244.801 6.800,243.824 6.800 C 242.847 6.800,241.936 6.620,241.800 6.400 C 241.664 6.180,240.843 6.000,239.976 6.000 C 239.109 6.000,238.400 5.820,238.400 5.600 C 238.400 5.380,237.601 5.200,236.624 5.200 C 235.647 5.200,234.736 5.020,234.600 4.800 C 234.464 4.580,233.373 4.400,232.176 4.400 C 230.979 4.400,230.000 4.220,230.000 4.000 C 230.000 3.771,228.800 3.600,227.200 3.600 C 225.600 3.600,224.400 3.429,224.400 3.200 C 224.400 2.965,223.000 2.800,221.000 2.800 C 219.000 2.800,217.600 2.635,217.600 2.400 C 217.600 2.151,215.267 2.000,211.400 2.000 C 207.533 2.000,205.200 1.849,205.200 1.600 C 205.200 1.349,202.600 1.200,198.200 1.200 C 193.800 1.200,191.200 1.349,191.200 1.600 M188.400 324.396 C 188.014 324.648,162.237 324.790,116.124 324.794 C 69.786 324.798,44.362 324.938,44.205 325.192 C 43.856 325.757,44.710 327.174,46.376 328.792 C 47.174 329.567,48.268 330.829,48.809 331.597 C 49.983 333.264,65.453 348.800,65.940 348.800 C 66.126 348.800,67.413 349.880,68.800 351.200 C 70.187 352.520,71.481 353.600,71.674 353.600 C 71.868 353.600,72.634 354.185,73.377 354.900 C 75.329 356.779,77.887 358.800,78.314 358.800 C 78.516 358.800,79.246 359.340,79.937 360.000 C 80.628 360.660,81.425 361.200,81.708 361.200 C 81.991 361.200,82.483 361.560,82.800 362.000 C 83.117 362.440,83.580 362.800,83.829 362.800 C 84.078 362.800,84.846 363.340,85.537 364.000 C 86.228 364.660,86.982 365.200,87.213 365.200 C 87.444 365.200,88.020 365.560,88.492 366.000 C 88.964 366.440,89.587 366.800,89.875 366.800 C 90.164 366.800,90.400 366.958,90.400 367.151 C 90.400 367.345,90.940 367.727,91.600 368.000 C 92.260 368.273,92.800 368.655,92.800 368.849 C 92.800 369.042,93.070 369.200,93.400 369.200 C 93.730 369.200,94.000 369.380,94.000 369.600 C 94.000 369.820,94.270 370.000,94.600 370.000 C 94.930 370.000,95.200 370.146,95.200 370.325 C 95.200 370.504,95.830 370.898,96.600 371.200 C 97.370 371.502,98.000 371.896,98.000 372.075 C 98.000 372.254,98.360 372.400,98.800 372.400 C 99.240 372.400,99.600 372.542,99.600 372.716 C 99.600 373.138,103.701 375.200,104.540 375.200 C 104.903 375.200,105.200 375.380,105.200 375.600 C 105.200 375.820,105.560 376.000,106.000 376.000 C 106.440 376.000,106.800 376.180,106.800 376.400 C 106.800 376.620,107.160 376.800,107.600 376.800 C 108.040 376.800,108.400 376.980,108.400 377.200 C 108.400 377.420,108.670 377.600,109.000 377.600 C 109.330 377.600,109.600 377.780,109.600 378.000 C 109.600 378.220,109.960 378.400,110.400 378.400 C 110.840 378.400,111.200 378.580,111.200 378.800 C 111.200 379.020,111.560 379.200,112.000 379.200 C 112.440 379.200,112.800 379.380,112.800 379.600 C 112.800 379.820,113.160 380.000,113.600 380.000 C 114.040 380.000,114.400 380.180,114.400 380.400 C 114.400 380.620,114.760 380.800,115.200 380.800 C 115.640 380.800,116.000 380.980,116.000 381.200 C 116.000 381.420,116.349 381.600,116.776 381.600 C 117.203 381.600,117.664 381.780,117.800 382.000 C 117.936 382.220,118.487 382.400,119.024 382.400 C 119.561 382.400,120.000 382.580,120.000 382.800 C 120.000 383.020,120.360 383.200,120.800 383.200 C 121.240 383.200,121.600 383.380,121.600 383.600 C 121.600 383.820,122.039 384.000,122.576 384.000 C 123.113 384.000,123.664 384.180,123.800 384.400 C 123.936 384.620,124.397 384.800,124.824 384.800 C 125.251 384.800,125.600 384.980,125.600 385.200 C 125.600 385.420,126.050 385.600,126.600 385.600 C 127.150 385.600,127.600 385.780,127.600 386.000 C 127.600 386.220,127.962 386.400,128.405 386.400 C 129.183 386.400,129.569 386.542,131.495 387.538 C 131.987 387.792,132.741 388.000,133.171 388.000 C 133.601 388.000,134.064 388.180,134.200 388.400 C 134.336 388.620,134.799 388.800,135.229 388.800 C 135.659 388.800,136.323 388.958,136.705 389.151 C 137.872 389.740,140.208 390.400,141.128 390.400 C 141.608 390.400,142.000 390.566,142.000 390.768 C 142.000 390.971,143.170 391.262,144.600 391.415 C 146.030 391.568,147.200 391.852,147.200 392.047 C 147.200 392.241,147.920 392.400,148.800 392.400 C 149.680 392.400,150.400 392.580,150.400 392.800 C 150.400 393.020,151.120 393.200,152.000 393.200 C 152.880 393.200,153.600 393.380,153.600 393.600 C 153.600 393.820,154.500 394.000,155.600 394.000 C 156.700 394.000,157.600 394.180,157.600 394.400 C 157.600 394.620,158.399 394.800,159.376 394.800 C 160.353 394.800,161.264 394.980,161.400 395.200 C 161.536 395.420,162.627 395.600,163.824 395.600 C 165.021 395.600,166.000 395.780,166.000 396.000 C 166.000 396.229,167.200 396.400,168.800 396.400 C 170.400 396.400,171.600 396.571,171.600 396.800 C 171.600 397.035,173.000 397.200,175.000 397.200 C 177.000 397.200,178.400 397.365,178.400 397.600 C 178.400 397.849,180.667 398.000,184.400 398.000 C 188.133 398.000,190.400 398.151,190.400 398.400 C 190.400 398.652,193.059 398.800,197.576 398.800 C 201.929 398.800,204.850 398.643,205.000 398.400 C 205.147 398.162,207.663 398.000,211.200 398.000 C 214.737 398.000,217.253 397.838,217.400 397.600 C 217.536 397.380,219.167 397.200,221.024 397.200 C 223.008 397.200,224.400 397.035,224.400 396.800 C 224.400 396.575,225.525 396.400,226.976 396.400 C 228.393 396.400,229.664 396.220,229.800 396.000 C 229.936 395.780,230.926 395.600,232.000 395.600 C 233.074 395.600,234.064 395.420,234.200 395.200 C 234.336 394.980,235.337 394.800,236.424 394.800 C 237.511 394.800,238.400 394.620,238.400 394.400 C 238.400 394.180,239.120 394.000,240.000 394.000 C 240.880 394.000,241.600 393.820,241.600 393.600 C 241.600 393.380,242.399 393.200,243.376 393.200 C 244.353 393.200,245.264 393.020,245.400 392.800 C 245.536 392.580,246.256 392.400,247.000 392.400 C 247.744 392.400,248.453 392.238,248.576 392.039 C 248.698 391.841,249.879 391.553,251.200 391.400 C 252.521 391.247,253.702 390.959,253.824 390.761 C 253.947 390.562,254.566 390.400,255.200 390.400 C 255.834 390.400,256.464 390.220,256.600 390.000 C 256.736 389.780,257.287 389.600,257.824 389.600 C 258.361 389.600,258.800 389.420,258.800 389.200 C 258.800 388.980,259.340 388.800,260.000 388.800 C 260.660 388.800,261.200 388.620,261.200 388.400 C 261.200 388.180,261.740 388.000,262.400 388.000 C 263.060 388.000,263.600 387.820,263.600 387.600 C 263.600 387.380,264.140 387.200,264.800 387.200 C 265.460 387.200,266.000 387.020,266.000 386.800 C 266.000 386.580,266.439 386.400,266.976 386.400 C 267.513 386.400,268.064 386.220,268.200 386.000 C 268.336 385.780,268.797 385.600,269.224 385.600 C 269.651 385.600,270.000 385.420,270.000 385.200 C 270.000 384.980,270.439 384.800,270.976 384.800 C 271.513 384.800,272.064 384.620,272.200 384.400 C 272.336 384.180,272.797 384.000,273.224 384.000 C 273.651 384.000,274.000 383.820,274.000 383.600 C 274.000 383.380,274.450 383.200,275.000 383.200 C 275.550 383.200,276.000 383.020,276.000 382.800 C 276.000 382.580,276.360 382.400,276.800 382.400 C 277.240 382.400,277.600 382.220,277.600 382.000 C 277.600 381.780,277.960 381.600,278.400 381.600 C 278.840 381.600,279.200 381.420,279.200 381.200 C 279.200 380.980,279.549 380.800,279.976 380.800 C 280.403 380.800,280.864 380.620,281.000 380.400 C 281.136 380.180,281.687 380.000,282.224 380.000 C 282.761 380.000,283.200 379.820,283.200 379.600 C 283.200 379.380,283.560 379.200,284.000 379.200 C 284.440 379.200,284.801 379.065,284.801 378.900 C 284.802 378.735,285.792 378.150,287.000 377.600 C 288.208 377.050,289.198 376.465,289.199 376.300 C 289.199 376.135,289.560 376.000,290.000 376.000 C 290.440 376.000,290.800 375.820,290.800 375.600 C 290.800 375.380,291.147 375.200,291.571 375.200 C 291.996 375.200,292.613 374.930,292.943 374.600 C 293.273 374.270,293.826 374.000,294.171 374.000 C 294.517 374.000,294.803 373.865,294.806 373.700 C 294.810 373.535,295.710 372.960,296.806 372.421 C 297.903 371.883,298.800 371.298,298.800 371.121 C 298.800 370.945,299.160 370.800,299.600 370.800 C 300.040 370.800,300.400 370.620,300.400 370.400 C 300.400 370.180,300.636 370.000,300.925 370.000 C 301.213 370.000,301.836 369.640,302.308 369.200 C 302.780 368.760,303.320 368.400,303.508 368.400 C 303.696 368.400,304.198 368.085,304.625 367.700 C 305.051 367.315,305.866 366.760,306.436 366.467 C 307.006 366.173,308.086 365.409,308.836 364.768 C 309.586 364.126,310.385 363.601,310.612 363.601 C 310.838 363.600,311.283 363.240,311.600 362.800 C 311.917 362.360,312.457 362.000,312.800 362.000 C 313.143 362.000,313.683 361.640,314.000 361.200 C 314.317 360.760,314.807 360.400,315.088 360.400 C 315.370 360.400,315.600 360.220,315.600 360.000 C 315.600 359.780,315.793 359.600,316.029 359.600 C 316.264 359.600,316.708 359.375,317.015 359.100 C 318.012 358.206,318.598 357.753,319.251 357.373 C 320.406 356.701,322.923 354.632,324.670 352.918 C 325.613 351.993,326.758 351.037,327.214 350.793 C 329.225 349.716,348.800 330.076,348.800 329.134 C 348.800 328.916,349.551 328.016,350.468 327.134 C 351.791 325.864,352.019 325.457,351.568 325.172 C 351.242 324.965,333.527 324.810,309.900 324.806 L 268.800 324.800 268.800 337.200 C 268.800 346.118,268.674 349.600,268.350 349.600 C 268.103 349.600,266.798 349.127,265.450 348.549 C 254.573 343.882,254.702 343.914,251.911 345.169 C 246.060 347.798,241.190 349.641,240.773 349.383 C 240.556 349.249,240.400 344.075,240.400 336.997 L 240.400 324.841 234.500 324.605 C 223.035 324.147,189.018 323.992,188.400 324.396 " stroke="none" fill="#245cdb" fill-rule="evenodd"></path><path id="path1" d="M378.302 63.700 C 378.248 63.755,378.113 117.800,378.002 183.800 L 377.800 303.800 323.400 304.000 L 269.000 304.200 268.902 314.000 C 268.848 319.390,268.938 324.000,269.102 324.243 C 269.563 324.930,393.671 325.183,393.900 324.498 C 393.993 324.221,394.217 324.087,394.399 324.199 C 394.581 324.312,395.871 323.308,397.265 321.969 L 399.800 319.534 399.903 195.133 C 400.017 56.670,400.265 69.422,397.401 66.600 C 394.605 63.844,393.648 63.600,385.646 63.600 C 381.660 63.600,378.356 63.645,378.302 63.700 M188.336 303.797 C 188.228 303.906,152.198 303.998,108.270 304.003 C 56.082 304.009,28.400 304.148,28.400 304.406 C 28.400 304.623,28.580 304.800,28.800 304.800 C 29.020 304.800,29.200 305.055,29.200 305.367 C 29.200 305.678,29.347 305.993,29.528 306.067 C 29.912 306.223,33.200 311.027,33.200 311.431 C 33.200 311.582,33.516 311.997,33.903 312.353 C 34.289 312.709,34.860 313.495,35.170 314.100 C 35.481 314.705,35.885 315.200,36.068 315.200 C 36.250 315.200,36.400 315.443,36.400 315.741 C 36.400 316.038,36.940 316.846,37.600 317.537 C 38.260 318.228,38.800 319.075,38.800 319.420 C 38.800 319.765,38.980 319.936,39.200 319.800 C 39.420 319.664,39.600 319.761,39.600 320.016 C 39.600 320.271,40.095 320.960,40.700 321.549 C 41.305 322.137,42.070 323.119,42.400 323.730 L 43.000 324.842 115.334 324.817 C 163.119 324.800,187.924 324.655,188.422 324.388 C 189.196 323.974,222.966 324.134,234.300 324.605 L 240.000 324.842 240.000 314.484 L 240.000 304.127 232.136 303.863 C 223.009 303.558,188.628 303.506,188.336 303.797 " stroke="none" fill="#55d2d2" fill-rule="evenodd"></path><path id="path2" d="M240.672 49.462 C 240.242 49.891,240.343 349.117,240.773 349.383 C 241.190 349.641,246.060 347.798,251.911 345.169 C 254.152 344.162,254.959 344.197,258.031 345.436 C 260.633 346.486,261.067 346.668,265.450 348.549 C 266.798 349.127,268.103 349.600,268.351 349.600 C 268.684 349.600,268.775 310.579,268.701 199.500 L 268.600 49.400 254.772 49.295 C 247.166 49.237,240.821 49.312,240.672 49.462 " stroke="none" fill="#f3445c" fill-rule="evenodd"></path><path id="path3" d="M68.000 49.528 C 67.670 49.923,66.770 50.684,66.001 51.221 C 63.886 52.695,53.600 63.119,53.600 63.788 C 53.600 64.504,51.184 67.200,50.542 67.200 C 50.287 67.200,49.882 67.763,49.642 68.450 C 49.403 69.138,48.305 70.588,47.203 71.672 C 46.101 72.757,45.200 73.820,45.200 74.035 C 45.200 74.653,42.427 77.264,42.031 77.019 C 41.835 76.898,41.770 77.164,41.887 77.610 C 42.020 78.118,41.806 78.678,41.314 79.110 C 40.508 79.818,39.867 108.966,40.615 110.900 C 40.871 111.562,43.759 111.600,93.456 111.600 C 140.078 111.600,146.194 111.670,147.513 112.221 C 154.170 115.002,154.101 124.303,147.400 127.427 C 146.925 127.649,125.076 127.881,93.600 128.000 L 40.600 128.200 40.600 134.800 L 40.600 141.400 93.800 141.600 C 142.320 141.782,147.106 141.858,148.200 142.462 C 154.017 145.671,153.838 154.250,147.896 157.016 L 145.800 157.992 93.343 157.996 C 45.880 158.000,40.862 158.060,40.643 158.633 C 40.327 159.457,40.327 170.143,40.643 170.967 C 40.862 171.540,45.861 171.600,93.143 171.602 C 128.374 171.604,145.892 171.741,146.911 172.024 C 153.313 173.802,154.425 182.765,148.723 186.631 L 147.000 187.800 94.020 187.906 C 52.497 187.989,40.972 188.118,40.726 188.506 C 40.316 189.151,40.317 200.450,40.727 201.096 C 40.974 201.485,52.428 201.614,94.087 201.696 L 147.131 201.800 148.862 203.017 C 154.002 206.629,153.533 214.265,148.000 217.066 L 146.200 217.977 93.543 217.989 C 45.902 217.999,40.862 218.060,40.643 218.633 C 40.286 219.564,40.359 230.516,40.726 231.094 C 40.972 231.482,52.497 231.611,94.020 231.694 C 146.703 231.799,147.008 231.805,148.400 232.624 C 153.699 235.744,153.699 243.856,148.400 246.976 C 147.008 247.795,146.703 247.801,94.020 247.906 C 52.497 247.989,40.972 248.118,40.726 248.506 C 40.352 249.094,40.293 296.603,40.661 300.501 L 40.916 303.202 114.558 303.101 L 188.200 303.000 188.302 196.000 C 188.375 119.800,188.280 88.655,187.971 87.800 C 187.732 87.140,187.381 85.700,187.191 84.600 C 186.670 81.584,186.374 80.282,186.009 79.400 C 185.827 78.960,185.266 77.520,184.763 76.200 C 182.366 69.910,176.588 62.277,171.600 58.811 C 170.830 58.276,170.110 57.716,170.000 57.566 C 169.890 57.416,169.125 56.912,168.300 56.446 C 156.251 49.648,155.816 49.600,106.231 49.600 C 81.810 49.600,69.200 49.464,69.200 49.200 C 69.200 48.586,68.665 48.733,68.000 49.528 M326.000 49.200 C 326.000 49.463,316.478 49.600,298.233 49.600 C 282.961 49.600,270.181 49.709,269.833 49.843 C 269.263 50.061,269.200 53.165,269.200 80.836 L 269.200 111.586 301.566 111.693 L 333.931 111.800 335.635 113.000 C 341.128 116.868,339.981 125.149,333.644 127.384 C 332.131 127.918,327.745 128.000,300.550 128.000 L 269.200 128.000 269.200 134.793 L 269.200 141.586 301.566 141.693 L 333.931 141.800 335.635 143.000 C 340.902 146.709,340.133 154.561,334.242 157.237 C 332.685 157.944,330.966 157.983,300.890 157.991 L 269.181 158.000 269.290 164.700 L 269.400 171.400 301.600 171.600 L 333.800 171.800 335.648 173.084 C 338.975 175.394,340.140 179.789,338.354 183.291 C 337.398 185.165,337.157 185.434,335.200 186.813 L 333.800 187.800 301.500 187.911 L 269.200 188.023 269.200 194.811 L 269.200 201.600 301.004 201.600 C 332.578 201.600,332.822 201.606,334.613 202.448 C 339.716 204.847,340.796 211.555,336.724 215.560 C 334.129 218.113,335.789 218.000,300.951 218.000 L 269.200 218.000 269.200 224.791 L 269.200 231.582 301.500 231.691 L 333.800 231.800 335.200 232.781 C 340.398 236.423,340.615 243.067,335.648 246.516 L 333.800 247.800 301.500 247.909 L 269.200 248.018 269.200 275.609 L 269.200 303.200 323.200 303.200 L 377.200 303.200 377.200 183.587 C 377.200 77.634,377.269 63.949,377.800 63.745 C 378.303 63.552,378.400 62.328,378.400 56.157 L 378.400 48.800 352.200 48.800 C 335.000 48.800,326.000 48.937,326.000 49.200 M237.687 65.490 C 235.910 68.127,233.854 71.820,233.506 73.000 C 233.376 73.440,232.869 74.880,232.379 76.200 C 230.124 82.273,228.320 107.000,229.843 110.967 C 230.204 111.909,239.396 111.909,239.757 110.967 C 240.169 109.895,240.037 63.670,239.622 63.413 C 239.414 63.285,238.543 64.219,237.687 65.490 M229.781 128.504 C 229.670 128.795,229.628 131.816,229.689 135.217 L 229.800 141.400 234.800 141.400 L 239.800 141.400 239.800 134.800 L 239.800 128.200 234.892 128.088 C 231.110 128.001,229.938 128.097,229.781 128.504 M229.777 158.517 C 229.668 158.801,229.628 161.816,229.689 165.217 L 229.800 171.400 234.568 171.513 C 238.114 171.598,239.420 171.495,239.662 171.113 C 240.038 170.521,240.121 159.581,239.757 158.633 C 239.433 157.788,230.098 157.680,229.777 158.517 M229.781 188.504 C 229.670 188.795,229.628 191.816,229.689 195.217 L 229.800 201.400 234.800 201.400 L 239.800 201.400 239.800 194.800 L 239.800 188.200 234.892 188.088 C 231.110 188.001,229.938 188.097,229.781 188.504 M229.781 218.504 C 229.670 218.795,229.628 221.816,229.689 225.217 L 229.800 231.400 234.800 231.400 L 239.800 231.400 239.800 224.800 L 239.800 218.200 234.892 218.088 C 231.110 218.001,229.938 218.097,229.781 218.504 M229.784 248.500 C 229.679 248.775,229.639 261.150,229.696 276.000 L 229.800 303.000 234.800 303.000 L 239.800 303.000 239.910 276.400 C 239.971 261.770,239.923 249.395,239.803 248.900 C 239.544 247.831,230.182 247.457,229.784 248.500 " stroke="none" fill="#fbfbfb" fill-rule="evenodd"></path><path id="path4" d="M229.600 50.053 C 226.630 50.238,223.120 50.677,221.800 51.027 C 220.480 51.377,218.860 51.802,218.200 51.972 C 204.053 55.608,189.200 73.485,189.200 86.876 C 189.200 87.468,189.020 88.064,188.800 88.200 C 188.580 88.336,188.400 88.177,188.400 87.847 C 188.400 87.517,188.227 87.140,188.016 87.010 C 187.772 86.859,187.773 87.179,188.019 87.886 C 188.265 88.595,188.368 127.866,188.303 196.000 L 188.200 303.000 209.000 303.000 L 229.800 303.000 229.800 275.600 L 229.800 248.200 234.689 248.088 C 239.490 247.978,239.583 247.992,239.801 248.888 C 239.923 249.389,239.973 261.815,239.912 276.500 C 239.850 291.185,239.935 303.200,240.100 303.200 C 240.265 303.200,240.400 246.140,240.400 176.400 L 240.400 49.600 237.700 49.658 C 236.215 49.690,232.570 49.867,229.600 50.053 M268.897 176.500 C 268.951 246.295,269.042 290.939,269.100 275.709 L 269.205 248.018 301.503 247.909 L 333.800 247.800 335.648 246.516 C 340.615 243.067,340.398 236.423,335.200 232.781 L 333.800 231.800 301.500 231.691 L 269.200 231.582 269.200 224.791 L 269.200 218.000 300.951 218.000 C 335.789 218.000,334.129 218.113,336.724 215.560 C 340.966 211.387,339.587 204.477,334.051 202.164 C 332.929 201.695,327.360 201.600,300.951 201.600 L 269.200 201.600 269.200 194.811 L 269.200 188.023 301.500 187.911 L 333.800 187.800 335.200 186.813 C 337.157 185.434,337.398 185.165,338.354 183.291 C 340.140 179.789,338.975 175.394,335.648 173.084 L 333.800 171.800 301.600 171.600 L 269.400 171.400 269.290 164.700 L 269.181 158.000 300.890 157.991 C 330.966 157.983,332.685 157.944,334.242 157.237 C 340.133 154.561,340.902 146.709,335.635 143.000 L 333.931 141.800 301.566 141.693 L 269.200 141.586 269.200 134.793 L 269.200 128.000 300.550 128.000 C 327.745 128.000,332.131 127.918,333.644 127.384 C 339.981 125.149,341.128 116.868,335.635 113.000 L 333.931 111.800 301.566 111.693 L 269.200 111.586 269.200 80.826 C 269.200 56.593,269.306 50.024,269.700 49.865 C 269.999 49.744,269.918 49.650,269.500 49.632 C 268.835 49.602,268.805 55.862,268.897 176.500 M240.000 86.991 C 240.000 99.830,239.891 110.619,239.757 110.967 C 239.396 111.909,230.204 111.909,229.843 110.967 C 228.320 107.000,230.124 82.273,232.379 76.200 C 232.869 74.880,233.376 73.440,233.506 73.000 C 234.214 70.596,239.030 63.048,239.622 63.413 C 239.852 63.556,240.000 72.757,240.000 86.991 M39.347 81.897 C 36.252 85.937,32.800 91.059,32.800 91.612 C 32.800 91.826,32.650 92.000,32.468 92.000 C 32.285 92.000,31.880 92.495,31.568 93.100 C 31.255 93.705,30.685 94.549,30.300 94.975 C 29.915 95.402,29.600 95.987,29.600 96.275 C 29.600 96.564,29.420 96.800,29.200 96.800 C 28.980 96.800,28.800 97.036,28.800 97.325 C 28.800 97.613,28.440 98.236,28.000 98.708 C 27.560 99.180,27.200 99.844,27.200 100.183 C 27.200 100.522,27.054 100.800,26.875 100.800 C 26.696 100.800,26.302 101.430,26.000 102.200 C 25.698 102.970,25.304 103.600,25.125 103.600 C 24.946 103.600,24.800 103.870,24.800 104.200 C 24.800 104.530,24.620 104.800,24.400 104.800 C 24.180 104.800,24.000 105.160,24.000 105.600 C 24.000 106.040,23.828 106.400,23.618 106.400 C 23.408 106.400,23.118 107.030,22.974 107.800 C 22.829 108.570,22.572 109.200,22.402 109.200 C 22.232 109.200,21.988 109.515,21.858 109.900 C 21.729 110.285,21.393 110.960,21.112 111.400 C 20.830 111.840,20.579 112.251,20.554 112.313 C 20.529 112.374,20.124 112.499,19.655 112.589 C 18.624 112.788,16.830 114.737,16.813 115.676 C 16.806 116.048,16.596 116.479,16.347 116.633 C 16.042 116.821,15.969 117.815,16.123 119.657 C 16.259 121.269,16.198 122.400,15.977 122.400 C 15.770 122.400,15.600 122.850,15.600 123.400 C 15.600 123.950,15.420 124.400,15.200 124.400 C 14.980 124.400,14.800 124.850,14.800 125.400 C 14.800 125.950,14.620 126.400,14.400 126.400 C 14.180 126.400,14.000 126.741,14.000 127.157 C 14.000 127.574,13.752 128.009,13.449 128.126 C 13.100 128.260,12.971 128.713,13.096 129.368 C 13.213 129.979,13.111 130.400,12.847 130.400 C 12.601 130.400,12.400 130.850,12.400 131.400 C 12.400 131.950,12.220 132.400,12.000 132.400 C 11.780 132.400,11.600 132.850,11.600 133.400 C 11.600 133.950,11.420 134.400,11.200 134.400 C 10.980 134.400,10.800 134.940,10.800 135.600 C 10.800 136.330,10.592 136.800,10.269 136.800 C 9.907 136.800,9.794 137.181,9.915 138.000 C 10.020 138.720,9.913 139.200,9.645 139.200 C 9.400 139.200,9.200 139.740,9.200 140.400 C 9.200 141.060,9.020 141.600,8.800 141.600 C 8.580 141.600,8.400 142.230,8.400 143.000 C 8.400 143.770,8.220 144.400,8.000 144.400 C 7.780 144.400,7.600 145.030,7.600 145.800 C 7.600 146.570,7.420 147.200,7.200 147.200 C 6.980 147.200,6.800 147.830,6.800 148.600 C 6.800 149.592,6.621 150.000,6.186 150.000 C 5.692 150.000,5.657 150.159,6.008 150.815 C 6.483 151.703,6.190 153.200,5.541 153.200 C 5.303 153.200,5.241 153.675,5.389 154.351 C 5.561 155.131,5.442 155.701,5.021 156.122 C 4.663 156.480,4.400 157.433,4.400 158.371 C 4.400 159.267,4.223 160.000,4.008 160.000 C 3.773 160.000,3.714 160.720,3.861 161.792 C 4.063 163.263,3.983 163.632,3.416 163.849 C 2.852 164.065,2.773 164.424,2.981 165.811 C 3.170 167.073,3.075 167.667,2.611 168.131 C 2.132 168.611,2.044 169.245,2.234 170.878 C 2.443 172.685,2.353 173.145,1.626 173.977 C 1.096 174.584,0.882 175.189,1.060 175.577 C 1.634 176.824,1.682 180.260,1.133 180.838 C 0.537 181.467,0.329 186.925,0.386 200.500 C 0.454 216.928,0.517 218.996,0.962 219.287 C 1.223 219.458,1.386 220.834,1.365 222.687 C 1.345 224.523,1.509 225.918,1.765 226.087 C 2.015 226.252,2.174 227.473,2.139 228.959 C 2.091 230.955,2.217 231.598,2.692 231.780 C 3.175 231.965,3.253 232.407,3.057 233.840 C 2.868 235.216,2.961 235.818,3.436 236.293 C 3.891 236.748,3.993 237.311,3.804 238.320 C 3.627 239.263,3.707 239.819,4.051 240.031 C 4.331 240.205,4.541 241.018,4.518 241.839 C 4.494 242.661,4.733 243.590,5.048 243.906 C 5.441 244.298,5.541 244.907,5.366 245.839 C 5.200 246.724,5.267 247.200,5.555 247.200 C 5.800 247.200,6.000 247.830,6.000 248.600 C 6.000 249.370,6.180 250.000,6.400 250.000 C 6.620 250.000,6.800 250.720,6.800 251.600 C 6.800 252.480,6.980 253.200,7.200 253.200 C 7.420 253.200,7.600 253.830,7.600 254.600 C 7.600 255.370,7.780 256.000,8.000 256.000 C 8.220 256.000,8.400 256.540,8.400 257.200 C 8.400 257.860,8.580 258.400,8.800 258.400 C 9.020 258.400,9.200 258.940,9.200 259.600 C 9.200 260.260,9.400 260.800,9.645 260.800 C 9.913 260.800,10.020 261.280,9.915 262.000 C 9.794 262.819,9.907 263.200,10.269 263.200 C 10.592 263.200,10.800 263.670,10.800 264.400 C 10.800 265.060,10.980 265.600,11.200 265.600 C 11.420 265.600,11.600 265.962,11.600 266.405 C 11.600 266.848,11.780 267.568,12.000 268.005 C 12.220 268.442,12.589 269.171,12.819 269.625 C 13.049 270.079,13.127 270.799,12.992 271.225 C 12.820 271.767,12.935 272.000,13.373 272.000 C 13.718 272.000,14.000 272.272,14.000 272.605 C 14.000 272.938,14.180 273.568,14.400 274.005 C 14.620 274.442,14.980 275.158,15.200 275.595 C 15.420 276.032,15.600 276.662,15.600 276.995 C 15.600 277.328,15.780 277.600,16.000 277.600 C 16.220 277.600,16.400 278.050,16.400 278.600 C 16.400 279.150,16.601 279.600,16.847 279.600 C 17.096 279.600,17.201 279.953,17.084 280.400 C 16.948 280.920,17.072 281.200,17.437 281.200 C 17.747 281.200,18.000 281.465,18.000 281.788 C 18.000 282.111,18.347 282.994,18.772 283.750 C 19.196 284.505,19.426 285.240,19.283 285.383 C 19.140 285.526,19.205 285.769,19.427 285.922 C 19.649 286.075,20.633 287.820,21.615 289.800 C 22.597 291.780,23.535 293.460,23.700 293.533 C 23.865 293.607,24.000 293.997,24.000 294.400 C 24.000 294.803,24.135 295.193,24.300 295.267 C 24.676 295.434,25.975 297.564,26.271 298.500 C 26.393 298.885,26.652 299.200,26.847 299.200 C 27.041 299.200,27.200 299.560,27.200 300.000 C 27.200 300.440,27.380 300.800,27.600 300.800 C 27.820 300.800,28.000 301.070,28.000 301.400 C 28.000 301.730,28.180 302.000,28.400 302.000 C 28.620 302.000,28.800 302.277,28.800 302.616 C 28.800 303.146,29.630 303.225,34.700 303.180 L 40.600 303.127 40.474 276.494 C 40.405 261.845,40.453 249.444,40.580 248.936 L 40.812 248.011 93.906 247.906 C 154.380 247.785,148.436 248.167,151.100 244.231 C 153.666 240.438,152.396 234.976,148.400 232.624 C 147.008 231.805,146.703 231.799,94.020 231.694 C 52.497 231.611,40.972 231.482,40.726 231.094 C 40.359 230.516,40.286 219.564,40.643 218.633 C 40.862 218.060,45.902 217.999,93.543 217.989 L 146.200 217.977 148.000 217.066 C 153.533 214.265,154.002 206.629,148.862 203.017 L 147.131 201.800 94.087 201.696 C 52.428 201.614,40.974 201.485,40.727 201.096 C 40.317 200.450,40.316 189.151,40.726 188.506 C 40.972 188.118,52.497 187.989,94.020 187.906 L 147.000 187.800 148.723 186.631 C 154.425 182.765,153.313 173.802,146.911 172.024 C 145.892 171.741,128.374 171.604,93.143 171.602 C 45.861 171.600,40.862 171.540,40.643 170.967 C 40.327 170.143,40.327 159.457,40.643 158.633 C 40.862 158.060,45.880 158.000,93.343 157.996 L 145.800 157.992 147.896 157.016 C 153.838 154.250,154.017 145.671,148.200 142.462 C 147.106 141.858,142.320 141.782,93.800 141.600 L 40.600 141.400 40.600 134.800 L 40.600 128.200 93.600 128.000 C 125.076 127.881,146.925 127.649,147.400 127.427 C 154.101 124.303,154.170 115.002,147.513 112.221 C 146.194 111.670,140.074 111.600,93.420 111.600 L 40.815 111.600 40.573 110.635 C 40.440 110.105,40.391 103.084,40.465 95.035 C 40.539 86.986,40.576 80.400,40.547 80.400 C 40.519 80.400,39.979 81.074,39.347 81.897 M239.800 134.800 L 239.800 141.400 234.800 141.400 L 229.800 141.400 229.689 135.217 C 229.546 127.248,229.031 127.953,234.892 128.088 L 239.800 128.200 239.800 134.800 M239.757 158.633 C 240.121 159.581,240.038 170.521,239.662 171.113 C 239.420 171.495,238.114 171.598,234.568 171.513 L 229.800 171.400 229.689 165.217 C 229.628 161.816,229.668 158.801,229.777 158.517 C 230.098 157.680,239.433 157.788,239.757 158.633 M239.800 194.800 L 239.800 201.400 234.800 201.400 L 229.800 201.400 229.689 195.217 C 229.546 187.248,229.031 187.953,234.892 188.088 L 239.800 188.200 239.800 194.800 M239.800 224.800 L 239.800 231.400 234.800 231.400 L 229.800 231.400 229.689 225.217 C 229.546 217.248,229.031 217.953,234.892 218.088 L 239.800 218.200 239.800 224.800 " stroke="none" fill="#ebd4fc" fill-rule="evenodd"></path><path id="path5" d="M377.501 183.700 L 377.400 303.400 323.100 303.501 C 293.235 303.557,268.800 303.737,268.800 303.901 C 268.800 304.066,293.325 304.110,323.300 304.000 L 377.800 303.800 378.000 183.900 C 378.110 117.955,378.065 64.000,377.901 64.000 C 377.736 64.000,377.556 117.865,377.501 183.700 M35.293 85.600 C 35.018 86.040,34.931 86.400,35.100 86.400 C 35.269 86.400,35.632 86.040,35.907 85.600 C 36.182 85.160,36.269 84.800,36.100 84.800 C 35.931 84.800,35.568 85.160,35.293 85.600 M2.800 161.200 C 2.800 161.640,2.980 162.000,3.200 162.000 C 3.420 162.000,3.600 161.640,3.600 161.200 C 3.600 160.760,3.420 160.400,3.200 160.400 C 2.980 160.400,2.800 160.760,2.800 161.200 M1.500 169.429 C 1.335 169.596,1.200 170.189,1.200 170.747 C 1.200 171.475,1.322 171.638,1.634 171.326 C 1.872 171.088,2.007 170.494,1.934 170.008 C 1.860 169.522,1.665 169.261,1.500 169.429 M0.101 184.200 C 0.105 185.080,0.187 185.393,0.283 184.895 C 0.379 184.398,0.375 183.678,0.275 183.295 C 0.175 182.913,0.096 183.320,0.101 184.200 M2.000 234.824 C 2.000 235.277,2.180 235.536,2.400 235.400 C 2.919 235.079,2.919 234.000,2.400 234.000 C 2.180 234.000,2.000 234.371,2.000 234.824 M6.000 252.200 C 6.000 252.530,6.180 252.800,6.400 252.800 C 6.620 252.800,6.800 252.530,6.800 252.200 C 6.800 251.870,6.620 251.600,6.400 251.600 C 6.180 251.600,6.000 251.870,6.000 252.200 M211.800 303.622 C 224.560 303.769,236.122 303.914,237.493 303.944 L 239.986 304.000 240.100 314.100 L 240.214 324.200 240.307 313.963 L 240.400 303.727 232.300 303.465 C 227.845 303.320,216.190 303.237,206.400 303.279 L 188.600 303.356 211.800 303.622 M28.620 303.900 C 28.829 304.065,64.910 304.109,108.800 303.998 L 188.600 303.796 108.420 303.698 C 64.321 303.644,28.411 303.735,28.620 303.900 " stroke="none" fill="#95d0e4" fill-rule="evenodd"></path><path id="path6" d="M175.400 62.000 C 176.259 62.880,177.052 63.600,177.162 63.600 C 177.272 63.600,176.659 62.880,175.800 62.000 C 174.941 61.120,174.148 60.400,174.038 60.400 C 173.928 60.400,174.541 61.120,175.400 62.000 M52.100 64.656 C 51.605 65.191,51.200 65.723,51.200 65.840 C 51.200 65.956,50.749 66.535,50.197 67.126 C 46.262 71.343,44.800 73.060,44.800 73.466 C 44.800 73.723,44.665 73.995,44.500 74.071 C 43.844 74.371,41.874 76.807,42.102 77.036 C 42.391 77.325,45.200 74.604,45.200 74.035 C 45.200 73.820,46.101 72.757,47.203 71.672 C 48.305 70.588,49.403 69.138,49.642 68.450 C 49.882 67.763,50.287 67.200,50.542 67.200 C 51.083 67.200,53.600 64.555,53.600 63.987 C 53.600 63.372,53.071 63.608,52.100 64.656 M377.467 63.867 C 377.320 64.013,377.200 117.923,377.200 183.665 L 377.200 303.197 323.000 303.301 L 268.800 303.404 323.100 303.402 L 377.400 303.400 377.501 183.823 C 377.581 88.771,377.704 64.181,378.101 63.929 C 378.397 63.741,378.424 63.610,378.167 63.606 C 377.928 63.603,377.613 63.720,377.467 63.867 M41.200 77.776 C 41.200 78.119,41.020 78.400,40.800 78.400 C 40.580 78.400,40.400 78.670,40.400 79.000 C 40.400 79.752,40.697 79.760,41.429 79.029 C 42.097 78.360,42.162 77.747,41.600 77.400 C 41.380 77.264,41.200 77.433,41.200 77.776 M39.612 79.697 C 39.605 80.080,39.222 80.829,38.759 81.361 C 38.296 81.893,37.948 82.448,37.985 82.595 C 38.022 82.741,37.681 83.183,37.226 83.577 C 36.772 83.971,36.400 84.453,36.400 84.647 C 36.399 84.841,35.994 85.480,35.500 86.066 C 35.005 86.653,34.285 87.510,33.900 87.971 C 33.515 88.432,33.200 88.987,33.200 89.205 C 33.200 89.422,33.020 89.600,32.800 89.600 C 32.580 89.600,32.400 89.920,32.400 90.312 C 32.400 90.703,32.040 91.283,31.600 91.600 C 31.160 91.917,30.800 92.503,30.800 92.901 C 30.800 93.299,30.531 93.728,30.202 93.854 C 29.874 93.981,29.704 94.245,29.826 94.442 C 29.948 94.639,29.857 94.800,29.624 94.800 C 29.391 94.800,29.200 95.060,29.200 95.377 C 29.200 95.695,28.885 96.190,28.500 96.477 C 27.662 97.103,25.976 100.243,26.303 100.570 C 26.735 101.002,27.200 100.801,27.200 100.183 C 27.200 99.844,27.560 99.180,28.000 98.708 C 28.440 98.236,28.800 97.613,28.800 97.325 C 28.800 97.036,28.980 96.800,29.200 96.800 C 29.420 96.800,29.600 96.564,29.600 96.275 C 29.600 95.987,29.915 95.402,30.300 94.975 C 30.685 94.549,31.255 93.705,31.568 93.100 C 31.880 92.495,32.285 92.000,32.468 92.000 C 32.650 92.000,32.800 91.826,32.800 91.612 C 32.800 91.061,36.253 85.936,39.332 81.918 C 40.228 80.748,40.376 80.292,40.044 79.721 C 39.654 79.051,39.623 79.049,39.612 79.697 M25.400 101.736 C 24.149 103.316,23.664 104.800,24.400 104.800 C 24.620 104.800,24.800 104.530,24.800 104.200 C 24.800 103.870,24.959 103.600,25.153 103.600 C 25.348 103.600,25.618 103.285,25.754 102.900 C 25.889 102.515,26.105 101.975,26.234 101.700 C 26.535 101.053,25.920 101.079,25.400 101.736 M22.900 105.798 C 22.625 106.111,22.400 106.824,22.400 107.383 C 22.400 107.942,22.220 108.400,22.000 108.400 C 21.780 108.400,21.600 108.694,21.600 109.053 C 21.600 109.412,21.266 109.997,20.857 110.353 C 19.861 111.221,19.319 112.883,20.134 112.570 C 20.457 112.446,20.824 112.042,20.949 111.672 C 21.201 110.928,22.061 109.511,22.450 109.200 C 22.587 109.090,22.826 108.415,22.982 107.700 C 23.137 106.985,23.429 106.400,23.632 106.400 C 23.834 106.400,24.000 106.130,24.000 105.800 C 24.000 105.054,23.556 105.053,22.900 105.798 M15.467 121.067 C 15.320 121.213,15.200 121.743,15.200 122.243 C 15.200 122.743,15.020 123.264,14.800 123.400 C 14.580 123.536,14.400 124.007,14.400 124.447 C 14.400 124.887,14.258 125.160,14.085 125.052 C 13.912 124.945,13.733 125.307,13.687 125.855 C 13.642 126.404,13.341 127.116,13.018 127.439 C 12.695 127.762,12.314 128.652,12.170 129.417 C 12.027 130.183,11.750 130.907,11.555 131.028 C 11.360 131.149,11.200 131.604,11.200 132.040 C 11.200 132.475,10.833 133.551,10.385 134.430 C 9.604 135.960,9.618 136.800,10.424 136.800 C 10.631 136.800,10.800 136.260,10.800 135.600 C 10.800 134.940,10.980 134.400,11.200 134.400 C 11.420 134.400,11.600 133.950,11.600 133.400 C 11.600 132.850,11.780 132.400,12.000 132.400 C 12.220 132.400,12.400 131.950,12.400 131.400 C 12.400 130.850,12.601 130.400,12.847 130.400 C 13.111 130.400,13.213 129.979,13.096 129.368 C 12.971 128.713,13.100 128.260,13.449 128.126 C 13.752 128.009,14.000 127.574,14.000 127.157 C 14.000 126.741,14.180 126.400,14.400 126.400 C 14.620 126.400,14.800 125.950,14.800 125.400 C 14.800 124.850,14.980 124.400,15.200 124.400 C 15.420 124.400,15.600 123.950,15.600 123.400 C 15.600 122.850,15.780 122.400,16.000 122.400 C 16.220 122.400,16.400 122.040,16.400 121.600 C 16.400 120.803,15.974 120.560,15.467 121.067 M9.319 137.453 C 9.458 137.592,9.392 138.042,9.172 138.453 C 8.862 139.032,8.910 139.200,9.386 139.200 C 9.774 139.200,10.000 138.832,10.000 138.200 C 10.000 137.650,9.790 137.200,9.533 137.200 C 9.277 137.200,9.180 137.314,9.319 137.453 M8.400 140.600 C 8.400 141.150,8.580 141.600,8.800 141.600 C 9.020 141.600,9.200 141.150,9.200 140.600 C 9.200 140.050,9.020 139.600,8.800 139.600 C 8.580 139.600,8.400 140.050,8.400 140.600 M7.600 143.176 C 7.600 143.849,7.780 144.400,8.000 144.400 C 8.220 144.400,8.400 143.961,8.400 143.424 C 8.400 142.887,8.220 142.336,8.000 142.200 C 7.767 142.056,7.600 142.463,7.600 143.176 M6.655 146.500 C 6.518 147.215,6.293 148.295,6.156 148.900 C 5.999 149.592,6.072 150.000,6.353 150.000 C 6.599 150.000,6.800 149.370,6.800 148.600 C 6.800 147.830,6.980 147.200,7.200 147.200 C 7.420 147.200,7.600 146.750,7.600 146.200 C 7.600 144.761,6.949 144.968,6.655 146.500 M5.200 151.800 C 5.200 152.570,5.368 153.200,5.573 153.200 C 6.094 153.200,6.469 151.845,6.166 151.056 C 5.733 149.928,5.200 150.338,5.200 151.800 M4.400 155.400 C 4.400 156.517,4.984 156.741,5.357 155.767 C 5.741 154.766,5.646 154.400,5.000 154.400 C 4.627 154.400,4.400 154.778,4.400 155.400 M3.867 157.467 C 3.445 157.888,3.556 160.000,4.000 160.000 C 4.220 160.000,4.400 159.370,4.400 158.600 C 4.400 157.161,4.327 157.006,3.867 157.467 M3.300 161.823 C 2.697 162.478,2.636 164.000,3.213 164.000 C 3.750 164.000,4.098 163.066,3.932 162.069 C 3.822 161.413,3.716 161.372,3.300 161.823 M2.291 164.642 C 1.852 165.081,1.941 168.400,2.392 168.400 C 2.608 168.400,2.881 167.995,2.998 167.500 C 3.251 166.427,2.707 164.226,2.291 164.642 M1.700 171.179 C 1.106 172.142,1.035 174.000,1.592 174.000 C 2.078 174.000,2.512 172.376,2.333 171.225 C 2.201 170.373,2.198 170.372,1.700 171.179 M0.400 178.400 C 0.400 181.041,0.815 181.981,1.357 180.567 C 1.671 179.751,1.671 177.049,1.357 176.233 C 0.815 174.819,0.400 175.759,0.400 178.400 M0.300 184.956 C -0.168 188.010,-0.037 193.501,0.454 191.402 C 0.660 190.523,0.777 188.273,0.714 186.402 C 0.607 183.223,0.580 183.128,0.300 184.956 M0.012 211.600 C 0.012 213.690,0.187 215.670,0.400 216.000 C 0.665 216.410,0.788 215.399,0.788 212.800 C 0.788 210.710,0.613 208.730,0.400 208.400 C 0.135 207.990,0.012 209.001,0.012 211.600 M0.400 221.833 C 0.400 223.761,0.534 224.423,0.900 224.302 C 1.511 224.102,1.752 222.338,1.415 220.537 C 0.993 218.289,0.400 219.047,0.400 221.833 M1.200 227.976 C 1.200 230.077,1.765 230.970,2.209 229.571 C 2.541 228.525,2.098 226.000,1.582 226.000 C 1.372 226.000,1.200 226.889,1.200 227.976 M2.000 232.724 C 2.000 233.434,2.252 234.011,2.625 234.154 C 3.125 234.346,3.225 234.139,3.125 233.128 C 2.960 231.459,2.000 231.114,2.000 232.724 M2.800 237.376 C 2.800 238.133,3.008 238.881,3.262 239.038 C 3.535 239.207,3.616 239.149,3.459 238.896 C 3.314 238.661,3.405 238.398,3.661 238.313 C 4.218 238.127,3.787 236.000,3.192 236.000 C 2.977 236.000,2.800 236.619,2.800 237.376 M3.600 240.976 C 3.600 241.988,4.188 242.666,4.553 242.076 C 4.845 241.604,4.381 240.000,3.953 240.000 C 3.759 240.000,3.600 240.439,3.600 240.976 M4.400 244.376 C 4.400 245.161,5.076 245.857,5.463 245.470 C 5.777 245.156,5.203 243.600,4.773 243.600 C 4.568 243.600,4.400 243.949,4.400 244.376 M5.200 248.376 C 5.200 249.023,5.380 249.664,5.600 249.800 C 5.820 249.936,6.000 250.397,6.000 250.824 C 6.000 251.251,6.180 251.600,6.400 251.600 C 6.620 251.600,6.800 251.240,6.800 250.800 C 6.800 250.360,6.620 250.000,6.400 250.000 C 6.180 250.000,6.000 249.370,6.000 248.600 C 6.000 247.830,5.820 247.200,5.600 247.200 C 5.380 247.200,5.200 247.729,5.200 248.376 M6.800 254.200 C 6.800 254.750,6.980 255.200,7.200 255.200 C 7.420 255.200,7.600 254.750,7.600 254.200 C 7.600 253.650,7.420 253.200,7.200 253.200 C 6.980 253.200,6.800 253.650,6.800 254.200 M7.600 256.576 C 7.600 256.893,7.780 257.264,8.000 257.400 C 8.220 257.536,8.400 257.277,8.400 256.824 C 8.400 256.371,8.220 256.000,8.000 256.000 C 7.780 256.000,7.600 256.259,7.600 256.576 M8.400 259.000 C 8.400 259.330,8.580 259.600,8.800 259.600 C 9.020 259.600,9.200 259.330,9.200 259.000 C 9.200 258.670,9.020 258.400,8.800 258.400 C 8.580 258.400,8.400 258.670,8.400 259.000 M9.200 261.800 C 9.200 262.350,9.380 262.800,9.600 262.800 C 9.820 262.800,10.000 262.350,10.000 261.800 C 10.000 261.250,9.820 260.800,9.600 260.800 C 9.380 260.800,9.200 261.250,9.200 261.800 M9.739 264.079 C 9.933 265.351,10.800 265.477,10.800 264.233 C 10.800 263.583,10.578 263.200,10.203 263.200 C 9.813 263.200,9.652 263.506,9.739 264.079 M10.400 266.424 C 10.400 266.877,10.580 267.136,10.800 267.000 C 11.026 266.860,11.200 267.188,11.200 267.753 C 11.200 268.303,11.366 268.855,11.569 268.981 C 11.772 269.106,12.061 269.765,12.210 270.444 C 12.404 271.327,12.604 271.556,12.912 271.248 C 13.330 270.830,13.187 270.330,11.953 267.905 C 11.759 267.523,11.600 266.848,11.600 266.405 C 11.600 265.956,11.335 265.600,11.000 265.600 C 10.661 265.600,10.400 265.958,10.400 266.424 M12.800 272.376 C 12.800 272.583,12.980 272.864,13.200 273.000 C 13.420 273.136,13.600 273.687,13.600 274.224 C 13.600 274.761,13.735 275.201,13.900 275.203 C 14.301 275.207,15.200 277.181,15.200 278.056 C 15.200 278.439,15.380 278.864,15.600 279.000 C 15.820 279.136,16.000 279.597,16.000 280.024 C 16.000 280.451,16.270 280.800,16.600 280.800 C 16.930 280.800,17.200 280.530,17.200 280.200 C 17.200 279.870,17.020 279.600,16.800 279.600 C 16.580 279.600,16.400 279.150,16.400 278.600 C 16.400 278.050,16.220 277.600,16.000 277.600 C 15.780 277.600,15.600 277.328,15.600 276.995 C 15.600 276.407,15.433 275.982,14.462 274.105 C 14.208 273.613,14.000 272.938,14.000 272.605 C 14.000 272.272,13.730 272.000,13.400 272.000 C 13.070 272.000,12.800 272.169,12.800 272.376 M16.800 281.800 C 16.800 282.130,16.959 282.400,17.153 282.400 C 17.348 282.400,17.601 282.760,17.716 283.200 C 17.831 283.640,18.122 284.000,18.363 284.000 C 18.910 284.000,18.935 283.331,18.400 283.000 C 18.180 282.864,18.000 282.403,18.000 281.976 C 18.000 281.549,17.730 281.200,17.400 281.200 C 17.070 281.200,16.800 281.470,16.800 281.800 M18.400 285.183 C 18.400 285.651,18.760 286.420,19.200 286.892 C 19.640 287.364,20.000 287.987,20.000 288.275 C 20.000 288.564,20.180 288.800,20.400 288.800 C 20.620 288.800,20.800 289.070,20.800 289.400 C 20.800 289.730,20.980 290.000,21.200 290.000 C 21.420 290.000,21.606 290.405,21.613 290.900 C 21.626 291.860,22.646 293.487,23.008 293.125 C 23.243 292.890,20.030 286.350,19.489 285.963 C 19.307 285.833,19.212 285.496,19.279 285.213 C 19.345 284.931,19.175 284.618,18.900 284.517 C 18.599 284.406,18.400 284.672,18.400 285.183 M23.200 293.981 C 23.200 294.546,24.091 296.400,24.364 296.401 C 24.494 296.402,25.050 297.392,25.600 298.600 C 26.150 299.808,26.735 300.798,26.900 300.799 C 27.065 300.799,27.200 301.070,27.200 301.400 C 27.200 301.730,27.380 302.000,27.600 302.000 C 27.820 302.000,28.000 302.360,28.000 302.800 C 28.000 303.597,28.267 303.600,108.467 303.600 C 152.723 303.600,188.844 303.511,188.735 303.402 C 188.626 303.292,152.596 303.201,108.668 303.198 C 38.152 303.194,28.800 303.123,28.800 302.596 C 28.800 302.268,28.620 302.000,28.400 302.000 C 28.180 302.000,28.000 301.730,28.000 301.400 C 28.000 301.070,27.820 300.800,27.600 300.800 C 27.380 300.800,27.200 300.455,27.200 300.033 C 27.200 299.612,27.065 299.207,26.900 299.133 C 26.524 298.966,25.225 296.836,24.929 295.900 C 24.807 295.515,24.548 295.200,24.353 295.200 C 24.159 295.200,24.000 294.840,24.000 294.400 C 24.000 293.960,23.820 293.600,23.600 293.600 C 23.380 293.600,23.200 293.772,23.200 293.981 M229.551 303.312 C 229.723 303.484,232.280 303.573,235.232 303.511 L 240.600 303.397 234.919 303.198 C 231.794 303.089,229.378 303.140,229.551 303.312 " stroke="none" fill="#bde3ed" fill-rule="evenodd"></path><path id="path7" d="M76.800 49.486 C 90.373 49.742,152.312 49.776,151.686 49.528 C 151.309 49.379,133.000 49.283,111.000 49.317 C 89.000 49.350,73.610 49.426,76.800 49.486 M225.200 49.571 C 224.650 49.731,227.800 49.789,232.200 49.700 C 236.600 49.612,240.380 49.477,240.600 49.401 C 241.410 49.122,226.166 49.290,225.200 49.571 M282.529 49.500 C 290.411 49.561,303.191 49.561,310.929 49.500 C 318.668 49.439,312.220 49.389,296.600 49.390 C 280.980 49.390,274.648 49.439,282.529 49.500 M154.600 50.400 C 155.040 50.589,155.760 50.744,156.200 50.744 L 157.000 50.744 156.200 50.400 C 155.760 50.211,155.040 50.056,154.600 50.056 L 153.800 50.056 154.600 50.400 M220.800 50.400 C 220.042 50.890,221.270 50.890,222.800 50.400 C 223.780 50.086,223.776 50.079,222.600 50.046 C 221.940 50.027,221.130 50.187,220.800 50.400 M157.200 50.911 C 157.200 51.019,158.145 51.410,159.300 51.779 C 168.305 54.654,177.384 61.947,182.147 70.131 C 182.765 71.194,183.362 71.972,183.473 71.860 C 184.781 70.553,172.958 58.149,167.453 55.051 C 163.016 52.555,157.200 50.206,157.200 50.911 M215.800 51.968 C 204.525 56.349,194.977 65.910,190.801 77.000 C 190.635 77.440,190.326 78.250,190.114 78.800 C 189.901 79.350,189.479 80.936,189.176 82.324 C 188.693 84.532,188.560 84.760,188.112 84.148 C 187.646 83.510,187.600 83.536,187.600 84.447 C 187.600 84.997,187.855 85.796,188.167 86.223 C 188.792 87.077,188.827 87.006,189.354 83.800 C 189.694 81.734,190.048 80.229,190.390 79.400 C 190.571 78.960,190.936 77.970,191.201 77.200 C 193.979 69.122,201.724 59.919,209.400 55.573 C 211.607 54.323,215.550 52.400,215.906 52.400 C 216.068 52.399,217.100 52.048,218.200 51.618 C 219.300 51.189,219.840 50.847,219.400 50.859 C 218.960 50.870,217.340 51.370,215.800 51.968 M185.212 76.000 C 185.212 76.330,185.387 76.870,185.600 77.200 C 185.945 77.733,185.988 77.733,185.988 77.200 C 185.988 76.870,185.813 76.330,185.600 76.000 C 185.255 75.467,185.212 75.467,185.212 76.000 M186.028 78.276 C 186.118 79.315,186.744 80.196,186.772 79.324 C 186.787 78.842,186.620 78.336,186.400 78.200 C 186.180 78.064,186.013 78.098,186.028 78.276 M186.834 80.800 C 186.846 81.130,187.011 81.760,187.200 82.200 L 187.544 83.000 187.566 82.200 C 187.578 81.760,187.413 81.130,187.200 80.800 C 186.855 80.267,186.815 80.267,186.834 80.800 " stroke="none" fill="#95adee" fill-rule="evenodd"></path><path id="path8" d="M225.600 50.008 C 224.390 50.160,225.920 50.196,229.000 50.087 C 232.080 49.979,234.675 49.825,234.767 49.745 C 235.041 49.506,227.971 49.709,225.600 50.008 M220.021 51.038 C 218.823 51.360,217.758 51.708,217.655 51.812 C 217.338 52.129,218.476 52.021,219.772 51.612 C 220.447 51.398,221.540 51.052,222.200 50.843 C 224.099 50.242,222.429 50.391,220.021 51.038 M214.000 53.200 C 212.165 54.205,212.650 54.210,214.856 53.209 C 215.815 52.774,216.330 52.421,216.000 52.426 C 215.670 52.430,214.770 52.778,214.000 53.200 M205.200 58.449 C 203.806 59.671,203.805 59.672,205.088 58.819 C 205.796 58.348,206.482 57.791,206.612 57.581 C 206.997 56.957,206.677 57.154,205.200 58.449 M200.875 62.124 C 199.954 63.062,199.200 63.954,199.200 64.105 C 199.200 64.255,200.023 63.556,201.028 62.551 C 202.034 61.545,202.787 60.654,202.703 60.570 C 202.619 60.486,201.796 61.185,200.875 62.124 M196.964 66.738 C 195.275 69.073,194.372 70.527,195.062 69.800 C 196.018 68.794,198.896 64.764,198.756 64.628 C 198.670 64.544,197.864 65.494,196.964 66.738 M189.449 82.615 C 189.312 82.973,189.216 83.656,189.236 84.133 C 189.262 84.747,189.385 84.608,189.659 83.656 C 190.057 82.272,189.894 81.458,189.449 82.615 M187.815 86.200 C 187.967 86.640,188.181 87.313,188.291 87.696 C 188.580 88.702,189.201 88.139,189.194 86.876 C 189.190 86.112,189.087 85.959,188.841 86.348 C 188.560 86.791,188.402 86.753,188.017 86.148 C 187.564 85.439,187.554 85.441,187.815 86.200 M198.928 303.100 C 204.608 303.162,213.788 303.162,219.328 303.100 C 224.868 303.037,220.220 302.986,209.000 302.986 C 197.780 302.986,193.248 303.037,198.928 303.100 " stroke="none" fill="#c4bcfc" fill-rule="evenodd"></path></g></svg>